<svg id="Слой_2" data-name="Слой 2" xmlns="http://www.w3.org/2000/svg" viewBox="0 0 400.23 378.78"><defs><style>.cls-1,.cls-2,.cls-3{fill:none;stroke:#000;}.cls-1,.cls-3{stroke-miterlimit:10;}.cls-2{stroke-linecap:round;stroke-linejoin:round;stroke-width:4px;}.cls-3{stroke-width:5px;}</style></defs><title>логотип</title><path class="cls-1" d="M250.6,293.11q3.38-3.23,6.83-6.71c3.42-3.46,6.65-6.9,9.7-10.27h11.24L253.15,302a33.51,33.51,0,0,1-2.15-4.87,7.27,7.27,0,0,1-.6-2.77A5.52,5.52,0,0,1,250.6,293.11Z" transform="translate(-105.58 -235.38)"/><path class="cls-2" d="M252.83,332.38a47.71,47.71,0,0,0,10.77,6.56c2.44,1.07,11.66,4.86,28.25,3.4,11.63-1,29.88-2.62,44.26-16.68,3.34-3.26,10.09-10,12.93-20.77,1.29-4.87,3.38-12.75.76-21.57-1.43-4.82-3.79-8.31-2.12-11.45,1.42-2.67,5-3.59,7.74-3.95,45.37-23,102.15-43.87,130.39-19.88,22.73,19.31,18.37,60.37,16.08,82-4.32,40.76-23.41,68.71-48.25,104.17C440.4,453.07,416.26,487,375.51,520c-6.1,4.93-12.51,9.8-19.18,14.55H314.49l-2-106.21,56.68.51V411.45H313.47V351.7H259.85l1,57.7-26,1.54v18.89l24.8-1s2.26,56.17.22,84.76c-.35,4.93-1.72,15.61,4.62,24,7.16,9.5,20.1,10.92,28.28,11.67,13,1.2,26,1.84,38.27,2.11-79.54,49.42-180,80.93-212.11,46-25.31-27.61-1.63-89.73,7.66-114.13,15.52-40.71,39-65.87,70.47-98.81C209.73,371.09,227.72,352.42,252.83,332.38Z" transform="translate(-105.58 -235.38)"/><circle class="cls-3" cx="185.93" cy="51.68" r="43.11"/><polygon class="cls-1" points="149.2 72.06 154.08 79.11 192.71 40.48 179.83 40.48 149.2 71.11 149.2 72.06"/><polygon class="cls-1" points="159.09 83.58 201.66 40.48 215.21 40.48 166.28 89.14 159.09 83.58"/></svg>